<svg width="30" height="24" viewBox="0 0 30 24" fill="none" xmlns="http://www.w3.org/2000/svg">
<path fill-rule="evenodd" clip-rule="evenodd" d="M29.4163 2.83819C28.3337 3.31958 27.1703 3.64494 25.9492 3.79127C27.1956 3.04214 28.1527 1.85598 28.6034 0.442654C27.4371 1.1362 26.1452 1.63994 24.7702 1.91144C23.669 0.735096 22.1002 0 20.364 0C17.0302 0 14.3273 2.70999 14.3273 6.05256C14.3273 6.52694 14.3808 6.98891 14.4837 7.43189C9.46671 7.17948 5.01874 4.76981 2.04145 1.10793C1.52185 2.00187 1.22416 3.0416 1.22416 4.15083C1.22416 6.25069 2.28995 8.10332 3.90968 9.18869C2.92009 9.15729 1.98936 8.88503 1.17541 8.43169C1.17498 8.45694 1.17498 8.4823 1.17498 8.50777C1.17498 11.4404 3.25576 13.8867 6.01727 14.4427C5.51069 14.581 4.97742 14.655 4.42681 14.655C4.03786 14.655 3.65968 14.6171 3.29117 14.5464C4.05928 16.9511 6.28859 18.701 8.9301 18.7499C6.86416 20.3732 4.26129 21.3409 1.43316 21.3409C0.945953 21.3409 0.465415 21.3123 -0.00683594 21.2564C2.66459 22.9737 5.83765 23.9756 9.24662 23.9756C20.3499 23.9756 26.4216 14.7527 26.4216 6.75442C26.4216 6.49198 26.4158 6.23094 26.4041 5.97141C27.5835 5.11804 28.607 4.05198 29.4163 2.83819Z" fill="white"/>
</svg>
